<?xml version="1.0" encoding="UTF-8"?>
<svg id="Layer_1" data-name="Layer 1" xmlns="http://www.w3.org/2000/svg" viewBox="0 0 105.7 74.44">
  <defs>
    <style>
      .cls-1 {
        fill: #fff;
      }

      .cls-2 {
        fill: none;
        stroke: #000;
        stroke-linecap: round;
        stroke-linejoin: round;
        stroke-width: .83px;
      }
    </style>
  </defs>
  <polyline class="cls-1" points="0 74.44 105.7 74.44 105.7 0 0 0 0 74.44"/>
  <polyline points="10.29 70.39 11.23 70.39 11.23 .94 10.29 .94 10.29 70.39"/>
  <polyline points="12.16 70.39 13.1 70.39 13.1 .94 12.16 .94 12.16 70.39"/>
  <polyline points="14.97 65.71 15.9 65.71 15.9 .94 14.97 .94 14.97 65.71"/>
  <polyline points="17.77 65.71 19.64 65.71 19.64 .94 17.77 .94 17.77 65.71"/>
  <polyline points="20.58 65.71 24.32 65.71 24.32 .94 20.58 .94 20.58 65.71"/>
  <polyline points="25.26 65.71 26.19 65.71 26.19 .94 25.26 .94 25.26 65.71"/>
  <polyline points="28.06 65.71 30.87 65.71 30.87 .94 28.06 .94 28.06 65.71"/>
  <polyline points="31.8 65.71 32.74 65.71 32.74 .94 31.8 .94 31.8 65.71"/>
  <polyline points="33.68 65.71 35.55 65.71 35.55 .94 33.68 .94 33.68 65.71"/>
  <polyline points="38.35 65.71 39.29 65.71 39.29 .94 38.35 .94 38.35 65.71"/>
  <polyline points="43.03 65.71 43.97 65.71 43.97 .94 43.03 .94 43.03 65.71"/>
  <polyline points="44.9 65.71 45.84 65.71 45.84 .94 44.9 .94 44.9 65.71"/>
  <polyline points="47.71 65.71 48.64 65.71 48.64 .94 47.71 .94 47.71 65.71"/>
  <polyline points="51.45 65.71 52.38 65.71 52.38 .94 51.45 .94 51.45 65.71"/>
  <polyline points="53.32 70.39 54.26 70.39 54.26 .94 53.32 .94 53.32 70.39"/>
  <polyline points="55.19 70.39 56.13 70.39 56.13 .94 55.19 .94 55.19 70.39"/>
  <polyline points="57.06 65.71 58 65.71 58 .94 57.06 .94 57.06 65.71"/>
  <polyline points="59.87 65.71 60.8 65.71 60.8 .94 59.87 .94 59.87 65.71"/>
  <polyline points="63.61 65.71 66.42 65.71 66.42 .94 63.61 .94 63.61 65.71"/>
  <polyline points="67.35 65.71 68.29 65.71 68.29 .94 67.35 .94 67.35 65.71"/>
  <polyline points="70.16 65.71 72.96 65.71 72.96 .94 70.16 .94 70.16 65.71"/>
  <polyline points="74.83 65.71 75.77 65.71 75.77 .94 74.83 .94 74.83 65.71"/>
  <polyline points="76.71 65.71 78.58 65.71 78.58 .94 76.71 .94 76.71 65.71"/>
  <polyline points="80.45 65.71 82.32 65.71 82.32 .94 80.45 .94 80.45 65.71"/>
  <polyline points="83.25 65.71 85.12 65.71 85.12 .94 83.25 .94 83.25 65.71"/>
  <polyline points="86.06 65.71 87.93 65.71 87.93 .94 86.06 .94 86.06 65.71"/>
  <polyline points="89.8 65.71 90.74 65.71 90.74 .94 89.8 .94 89.8 65.71"/>
  <polyline points="92.61 65.71 93.54 65.71 93.54 .94 92.61 .94 92.61 65.71"/>
  <polyline points="96.35 70.39 97.29 70.39 97.29 .94 96.35 .94 96.35 70.39"/>
  <polyline points="98.22 70.39 99.16 70.39 99.16 .94 98.22 .94 98.22 70.39"/>
  <path class="cls-2" d="M2.14,68.54l1.65-1.42h.31v6.33m10.4-5.84s1.02-.62,1.87-.51c.85,.11,1.44,.58,1.49,1.34,.05,.76-.32,1.27-1.32,1.91-.88,.56-1.62,1.11-1.81,1.84-.16,.63-.06,1.19-.06,1.19h3.22m3.05-6.25h3.38v.28l-2.12,2.3s2.34-.08,2.34,1.81c0,1.53-1.53,1.8-1.85,1.83-.78,.06-1.34-.07-1.77-.26m8.5-5.95l-1.99,4.25v.39h3.68m-.96-1.5v3.13m7.2-6.29h-2.73l-.15,2.32s1.1-.26,1.97,.14c.74,.33,1.15,1.15,.91,2.14-.39,1.63-2.05,1.64-3.06,1.64m8.77-6.24s-2.55,2.47-2.55,4.19,1.06,2.08,1.88,2.08c.67,0,1.85-.3,1.85-1.9s-1.28-1.77-1.8-1.77c-1.85,0-1.93,1.59-1.93,1.59m6.55-4.17h3.71s.04,.58-.2,.91c-.29,.39-1.89,1.96-2.18,3.25-.27,1.22-.18,2.11-.18,2.11m11.94,0c.65,0,1.86-.25,1.86-1.56s-1.86-1.96-1.86-1.96c1.55-.6,1.55-1.58,1.55-1.58,0-1.19-1.47-1.2-1.55-1.2s-1.55,0-1.55,1.2c0,0,0,.99,1.55,1.58-1.86,.65-1.86,1.96-1.86,1.96,0,1.32,1.21,1.56,1.86,1.56m5.86,0s2.55-2.47,2.55-4.2-1.06-2.08-1.88-2.08c-.67,0-1.85,.3-1.85,1.9s1.28,1.78,1.8,1.78c1.85,0,1.93-1.6,1.93-1.6m6.53,1.06c0-1.05-.1-2.35-.58-2.83-.27-.26-.9-.29-1.29-.29s-1.1,.03-1.29,.29c-.49,.48-.56,1.78-.56,2.83s.07,2.35,.56,2.83c.27,.26,.9,.29,1.29,.29s1.02-.03,1.29-.29c.49-.48,.58-1.78,.58-2.83m3.75-1.73l1.65-1.42h.32v6.33m3.85-5.84s1.02-.62,1.87-.51,1.44,.58,1.49,1.34c.05,.76-.32,1.27-1.32,1.91-.88,.56-1.62,1.11-1.81,1.84-.16,.63-.06,1.19-.06,1.19h3.22m4.85,.03c.65,0,1.86-.25,1.86-1.56s-1.86-1.96-1.86-1.96c1.55-.6,1.55-1.58,1.55-1.58,0-1.19-1.47-1.2-1.55-1.2s-1.55,0-1.55,1.2c0,0,0,.99,1.55,1.58-1.86,.65-1.86,1.96-1.86,1.96,0,1.32,1.2,1.56,1.86,1.56m7.47-5.5l3.81,2.23v.41l-3.82,2.26"/>
</svg>